<?xml version="1.0" encoding="utf-8"?>
<!-- Generator: Adobe Illustrator 19.0.0, SVG Export Plug-In . SVG Version: 6.00 Build 0)  -->
<svg version="1.1" id="Layer_1" xmlns="http://www.w3.org/2000/svg" xmlns:xlink="http://www.w3.org/1999/xlink" x="0px" y="0px"
	 viewBox="0 0 140.9 50.3" style="enable-background:new 0 0 140.9 50.3;" xml:space="preserve">
<style type="text/css">
	.st0{fill:#FFFFFF;stroke:#000000;stroke-width:0.25;stroke-miterlimit:10;}
	.st1{fill:#009844;}
</style>
<g>
	<path class="st0" d="M108.5,17.1c0-1.4,0.4-2.6,0.2-3.9c-0.4-2.6-1.2-5.1-3.9-5.9c-2.6-0.8-5.4-1.2-7.3,1.7
		c-0.4,0.5-1.1,0.9-1.8,1.1c-0.5,0.2-1.3,0.8-1.8,0.2c-0.6-0.7-0.2-1.5,0.3-2.2c0.1-0.2,0.3-0.3,0.4-0.5c1.3-1.9,0.6-3.9-1.7-4.2
		c-1.4-0.2-2.9-0.1-4.3,0c-1.6,0.1-3-0.2-4.4-1.2C80.8-0.4,72.8-0.5,70,2.6c-1.2,1.3-2.1,1.6-3.8,1c-3-1.1-5,1.3-6.6,4.2
		c-1.2,2.1,0.7,3.2,2.4,4c0.4,0.2,1.1,0.4,0.8,1c-0.4,0.7-0.8,1.5-1.6,1.6c-0.6,0.1-0.7-0.6-0.9-1c-0.6-1.4-1-3.2-2.7-3.2
		c-2.2,0-4.4,0.4-6.8,0c-2-0.4-4.9,3.6-4.8,5.8c0,0.9-0.5,1.3-1.1,1.7c-1.5,0.9-2.6,1.9-1.8,3.9c-4.5-0.1-4.7,0-6.3,3.9
		c-0.4,0.9-0.9,1.7-1.9,1.9c-2.1,0.5-3.6,2-5.2,3.3c-1.9,1.6-3.7,3.3-6.2,4.2c-1.4,0.5-2.6,1.7-2.3,2.7c0.3,1.2,1.9,1.7,3.4,1.6
		c0.4,0,0.8-0.1,1.3-0.2c1.7-0.4,3.5-0.7,5.2-1.1c1.4-0.3,2.5,0,3.5,1.1c2.6,2.7,4.1,2.6,6.4-0.2c1.4-1.6,3.5-3.4,5.4-2.9
		c4.3,1,7.9-0.1,11.4-2.4c1,4,2.6,4.6,6.2,2.4c0.2-0.2,0.5-0.3,0.7-0.5c1.3-0.9,2.5-0.9,3.7,0.3c1.6,1.6,3.6,2.8,5.6,3.9
		c1.3,0.7,2.9,1.3,2.5,3.2c-0.4,2-2.1,2.6-3.9,2.6c-0.9,0-1.7,0-2.6,0c-2.4-0.1-4.7-0.4-7.1-0.1c-11,1.6-21.9-1.3-32.9-0.6
		c-2.8,0.2-5.7,0-8.6,0.5c-1.5,0.2-3,0.5-4.3-0.5c-1.9-1.4-3.8-1.4-5.8-0.5c-1.7,0.8-3.4,1-5.2,0.3c-1.9-0.7-3.4-0.2-4.8,1.3
		c-0.8,0.8-1.4,1.7-0.8,2.6c0.6,0.8,1.7,0.7,2.6,0.3c1.1-0.4,2-1,3.2-0.9c3.9,0.1,7.8-0.5,11.7,0.7c0.8,0.3,1.8,0.1,2.8,0
		c5.1-0.8,10.3-1.1,15.4-0.5c12.7,1.5,25.4,1.1,38.1,0.7c3.4-0.1,5.7-2.5,5.7-5.9c0-0.6-0.3-1.3,0.1-1.8c2.1,0.2,2.8,1.4,3.3,3.4
		c0.6,2.2,1.6,4.9,4.4,4.8c4-0.1,7.8,1,11.7,0.8c4.4-0.2,8.8-0.3,13.2-0.3c5.1-0.1,10.5-2.5,15.6,0.3c0.1,0,0.1,0,0.2,0
		c3.6,0,7.1,0,10.7,0c0.6,0,1.4,0.1,1.4-0.8c0-0.7,0.3-1.7-0.8-2c-2.7-0.6-5.3-1.9-8.2-1.2c-1.9,0.5-3.6,0.7-5.2-0.8
		c-0.5-0.5-1.2-0.5-1.8-0.3c-4.6,1.5-9.3,1.3-14,1.2c-0.9,0-1.8,0.3-2.7-0.2c-1.4-0.7-2.8-0.6-4.2-0.1c-5.1,1.5-10.1-0.5-15.1-0.1
		c-0.5,0-0.9-0.4-1.2-0.8c-0.4-0.6-0.6-1.1,0.3-1.5c1.8-0.6,2.8-2.2,3.6-3.8c1-1.9,2.3-3.6,4.1-4.9c0.6-0.5,1.3-0.8,2.2-0.7
		c2.2,0.3,4.4,0.5,6.6,0.8c4,0.5,8.1,0.7,11,4.2c0.5,0.7,1.4,1.2,2.5,1c2.5-0.6,4-4.7,2.6-6.8c-1.1-1.7-2.3-3.3-2.8-5.4
		c4,0.3,6-1.8,5.7-5.8c0-0.5,0.1-1,0.3-1.5c0.9-2.8-1-7.9-3.4-9.4c-0.6-0.4-1.3-0.7-2-0.5c-3.8,0.7-8.1,0.5-9,5.8
		C108.9,16.7,108.7,16.9,108.5,17.1z"/>
	<path class="st1" d="M58.9,48c-7.4,0.7-15-0.3-22.7-0.9C31,46.8,25.9,47,20.8,47.6c-1,0.1-2.1,0.3-3,0c-2.7-0.8-5.4-0.7-8.1-0.7
		c-2.3,0-4.7-0.2-6.9,1c-0.5,0.3-1.2,0.4-1.5-0.2c-0.3-0.5,0.2-0.9,0.5-1.3c1.1-1.2,2.3-1.7,3.8-1.1c2.1,0.8,4.2,0.6,6.2-0.4
		c1.5-0.7,3-0.7,4.4,0.3c1.1,0.8,2.3,1.1,3.6,0.9c3.6-0.4,7.1-0.7,10.8-0.7c3.7,0.1,7.4-0.2,11.1,0.3c10,1.3,20,0.1,29.9,0.4
		c1.1,0,2.1,0,3.2-0.4c1.4-0.6,2.2-1.7,2.4-3c0.3-1.3-0.5-2.4-1.6-3c-2.7-1.5-5.3-3.1-7.6-5.2c-1-1-2.4-0.8-3.6-0.1
		c-0.7,0.4-1.4,0.9-2.2,1.3c-2.2,1-3.1,0.5-3.6-1.9c-0.1-0.6,0.1-1.4-0.7-1.6c-0.7-0.2-1.1,0.5-1.6,0.9c-2.4,1.9-5.3,3-8.2,2.2
		c-3.7-1-5.9,0.9-8.1,3c-2.2,2.1-3.1,2.4-5.2,0.2c-1.3-1.4-2.7-1.7-4.4-1.3c-1.9,0.4-3.9,0.8-5.9,1.2c-1,0.2-2.2,0.1-2.5-1
		c-0.2-0.9,0.8-1.4,1.7-1.7c2.2-0.8,3.9-2.3,5.7-3.8c1.7-1.5,3.4-3,5.7-3.7c1.3-0.4,1.9-1.6,2.3-2.9c0.9-2.5,1.9-3.1,4.5-2.7
		c1.4,0.2,2.2,0.1,1.6-1.6c-0.4-1.1,0.3-1.7,1.1-2.2c1.3-0.7,1.9-1.6,1.8-3.3c-0.1-2.3,3.9-4.8,5.9-3.9c0.9,0.4,1.7,0.1,2.5-0.1
		c2.5-0.8,3.2-0.5,4.1,1.9c0.4,0.9,0.5,2.1,1.8,2.1c1.3,0,1.9-1.2,2.5-2.1c0.7-1-0.2-1.5-0.9-2c-1.2-0.8-3.1-1.1-2.2-3.2
		c1-2.5,3.8-4.4,5.6-3.6c2,0.9,3.2,0.4,4.6-1.2c2.5-2.9,10.1-2.7,13.3-0.4C85.6,4,87.3,4.3,89.3,4c0.8-0.1,1.7-0.2,2.6-0.1
		c2.7,0.2,3.2,1.3,1.8,3.6c-0.4,0.6-0.8,1.3-0.7,2c0.1,1.3,0.4,2.3,2.1,1.7c1.1-0.4,2.2-0.7,3-1.5c2.2-2,4.7-2.6,6.9-1.5
		c1.9,0.9,3.2,3.8,2.9,6.5c0,0.4-0.1,0.7-0.2,1.1c-0.1,0.9-1.4,2.1,0.1,2.5c1.3,0.4,1.8-1,2.3-2.1c0.5-1.2,0.6-2.8,1.9-3.2
		c2.1-0.7,4.4-1.5,6.7-1.3c0.9,0.1,1.6,0.7,2,1.4c1.5,2.5,3.3,4.7,1.8,8.1c-0.6,1.4,0.4,3.4-1.3,4.8c-0.9,0.8-1.5,1.3-2.7,1.2
		c-2-0.3-2.3,0.3-1.5,2.1c0.8,1.7,1.8,3.2,2.8,4.8c1.2,1.7,0.8,2.6-1.6,4.8c-1.2,1.1-2.1,0.1-2.8-0.6c-3.9-4.5-9.5-3.3-14.5-4.5
		c-5.1-1.3-7.9,1.5-10.1,5.4c-1,1.7-1.9,3.4-4,3.9c-0.8,0.2-0.8,0.7-0.6,1.3c0.5,1.6,1.5,2.5,3.1,2.4c3.2-0.1,6.3,0.4,9.4,0.6
		c0.4,0,0.9,0.1,1.3,0c5.6-1.3,11.1,0,16.7-0.1c2.4-0.1,4.7-0.6,7-1.2c0.9-0.2,1.9-0.5,2.7,0.2c1.5,1.3,3.3,1.3,5.1,0.8
		c2.7-0.8,5.2,0.4,7.7,0.9c0.4,0.1,0.7,0.3,0.6,0.7c-0.1,0.6-0.5,0.7-1,0.6c-4.2-0.3-8.6,0.9-12.7-0.9c-1.2-0.5-2.5-0.7-3.8-0.4
		c-1.3,0.2-2.5,0.5-3.8,0.6c-7,0.3-14.1,1.4-21.1,0.7c-3.2-0.3-6.4-0.6-9.5-0.8c-2.6-0.2-3.8-2.7-3.8-4.8c0-3.3-2.7-2.9-4.2-4.1
		c-0.7-0.5-0.8,0.4-0.9,1c-0.9,7.1-1,7.3-8.2,7.5C67,48.1,63.1,48,58.9,48z M92,29.9c0,0.1-0.1,0.4,0,0.8c0.1,0.8-0.6,1.9,0.4,2.3
		c0.8,0.3,1.5-0.5,2.1-1.2c0.8-1.1,1.8-1,2.9-0.6c2.1,0.8,4,0.7,5.8-0.8c0.9-0.8,1.9-0.7,2.6,0.3c0.8,1.1,2.1,1.5,3.3,1.8
		c1.8,0.4,3.6,0.8,5,2.2c0.4,0.5,1,0.7,1.5,0.2c0.5-0.5,0.6-1.2,0.1-1.8c-0.3-0.4-1-0.7-0.9-1.4c0.2-1.2-0.4-1.3-1.5-1.3
		c-1.6,0-2.5-1.2-2-2.7c0.4-1.5,1.4-2.5,3-2.6c1.4-0.1,2.7,0,4-0.2c1.1-0.2,2.5-1.2,1.4-2.1c-2-1.7-1.1-2.8-0.1-4.4
		c0.9-1.6-0.1-4.4-1.5-4.8c-1.4-0.3-5.6,2-5.9,3.5c-0.4,1.8-1.4,2.7-3.1,3c-1.2,0.2-1.6,0.9-1.8,2.1c-0.5,2.7-2.8,4-4.9,5.3
		c-0.6,0.4-1.4,0.2-1.9-0.5c-1-1.1-2.2-1.8-3.6-2.1c-0.8-0.2-1.5-0.7-1.4-1.6c0.1-1,0.9-1.1,1.7-1.2c1.5-0.1,3,0.1,4.5,0.2
		c1.2,0.1,2.1-0.3,2.8-1.2c0.8-1-0.2-1.6-0.7-2.2c-1.1-1.4-0.5-2.3,0.8-3.1c2-1.2,2.4-2.3,1.1-3.7c-2.4-2.7-3.7-3.5-5.4-1.8
		c-1.3,1.3-2.7,2.5-4.1,3.8c-1.6,1.5-3.7,1.7-5.5,0.7c-0.6-0.3-0.8-0.7-0.4-1.2c1-1.2,0.8-2.3,0.1-3.5C89.8,9.6,90,9,90.3,8.5
		c1.1-2.2,1-2.5-1.5-2.3c-2.2,0.1-4.2,0.2-5.8-1.7c-0.7-0.9-2-1-2.8,0.1c-1.2,1.7-2.3,1.3-3.7,0.3c-2.4-1.7-4.3-1.4-5.8,1
		C69.9,7,69,7.3,67.8,6.9c-1-0.3-2-0.4-2.9,0.1c-0.7,0.4-1.8,0.8-1.6,1.8c0.1,1.1,1.2,1.3,2.2,1.3c1.1,0,2.1,0,3.2,0
		c0.6,0,1.4-0.3,1.7,0.5c0.3,0.8-0.4,1.2-1.1,1.6c-1.8,0.8-3.4,1.9-4.7,3.3c-2.8,2.8-5,2.7-7.4-0.5c-0.8-1.1-1.5-2-3.1-1
		c-0.9,0.6-2.1,0.4-3.1,0.2c-1.2-0.3-1.8,0.2-1.8,1.4c0,1.3-0.3,2.4-1.2,3.3c-0.9,0.8-1.3,1.8-1.4,3c-0.2,2-1.4,3.1-3.4,2.6
		c-2.5-0.6-3.6,0.7-4.3,2.7c-0.4,1.2-1.3,1.8-2.4,2.2c-2.3,0.7-4.3,1.9-6,3.6c-0.6,0.6-1.6,1.2-1.2,2.1c0.4,0.9,1.6,0.8,2.5,0.6
		c1.7-0.4,3.3-0.3,4.6,1.1c0.6,0.6,1.2,0.4,2,0.2c2.8-1,5.1-2.7,7.1-5c1.3-1.5,2.3-1.5,3.2,0c1.3,2.1,5,2.2,6.2,0
		c0.8-1.4,1.6-2.4,3.2-2.3c1.8,0.1,2.8,1.2,3.4,2.8c0.6,1.8,1.5,1.6,2.6,0.4c1.3-1.5,2.9-2.2,4.9-2.3c2.1-0.2,3.4-1.6,4.2-3.5
		c0.4-1.1,0.8-2.3,1.4-3.3c0.9-1.6,4.8-2.2,5.4-0.9c0.9,1.9,2,4.1,0.7,6.3c-1,1.9-0.2,2.8,1.4,3.2c3.1,0.8,4.3,0.1,4.6-2.4
		c0.3-2.4,1.7-4,3.7-5.2c0.5-0.3,1-0.5,1.6-0.1c0.5,0.4,0.7,0.9,0.5,1.5C91.8,27.2,92,28.4,92,29.9z M83.5,38.3
		c1.9-0.2,3.4-1,4.1-2.8c0.4-1,0.1-1.7-1.1-1.6c-1.3,0.1-2.7,0.3-4,0.4c-1,0.1-2.2,0.1-2.4,1.3c-0.2,1.3,1,1.7,1.9,2.2
		C82.4,38.2,83,38.2,83.5,38.3z M76.9,31.8c-0.1-0.2-0.3-0.6-0.5-0.8c-1.4-1.3-0.9-2.1,0.6-2.8c1-0.4,1.6-1.2,1.7-2.3
		c0.1-0.8-0.1-1.7-0.9-2c-0.8-0.3-1.4,0.3-1.8,0.9c-0.9,1.5-1.9,3-2.6,4.6c-0.7,1.4,1.1,3.4,2.6,3.2C76.4,32.6,76.9,32.5,76.9,31.8z
		 M71.1,33.9c1.1,2.3,2.7,3,5.2,2.1C74.6,35.1,73.1,34.2,71.1,33.9z"/>
	<path class="st1" d="M52.1,28.7c-1,0-1.6-0.2-1.7-1c-0.1-0.9,0.3-1.8,1.2-2c1.5-0.3,2.6-1,3.5-2.2c0.6-0.9,1.5-0.7,2.3-0.2
		c0.9,0.6,2.3,0.9,2.3,2.3c0,0.9-1,1.3-1.8,1.6C55.8,27.7,53.8,28.3,52.1,28.7z"/>
	<path class="st1" d="M80.9,10.9c0.7,0.1,1.6,0,2,0.9c0.4,1-0.5,1.4-1.1,1.8c-1.4,0.9-2.7,1.9-4.2,2.6c-1.4,0.7-2,0.1-1.8-1.4
		C76.1,12.9,78.7,10.9,80.9,10.9z"/>
</g>
</svg>
