<?xml version="1.0" encoding="iso-8859-1"?>
<!-- Generator: Adobe Illustrator 19.0.0, SVG Export Plug-In . SVG Version: 6.00 Build 0)  -->
<svg version="1.1" id="Layer_1" xmlns="http://www.w3.org/2000/svg" xmlns:xlink="http://www.w3.org/1999/xlink" x="0px" y="0px"
	 viewBox="0 0 508 508" style="enable-background:new 0 0 508 508;" xml:space="preserve">
<circle style="fill:#324A5E;" cx="254" cy="254" r="254"/>
<path style="fill:#ACB3BA;" d="M403.2,396.4H104.8c-9.2,0-16.4-7.2-16.4-16.4V128c0-9.2,7.2-16.4,16.4-16.4h298
	c9.2,0,16.4,7.2,16.4,16.4v252C419.6,389.2,412,396.4,403.2,396.4z"/>
<g>
	<path style="fill:#E6E9EE;" d="M188.4,161.2H93.6c-2.8,0-5.2-2.4-5.2-5.2v-39.6c0-2.8,2.4-5.2,5.2-5.2h94.8c2.8,0,5.2,2.4,5.2,5.2
		V156C193.6,159.2,191.2,161.2,188.4,161.2z"/>
	<path style="fill:#E6E9EE;" d="M301.2,161.2h-94.4c-2.8,0-5.2-2.4-5.2-5.2v-39.6c0-2.8,2.4-5.2,5.2-5.2h94.8c2.8,0,5.2,2.4,5.2,5.2
		V156C306.4,159.2,304,161.2,301.2,161.2z"/>
	<path style="fill:#E6E9EE;" d="M414.4,161.2h-94.8c-2.8,0-5.2-2.4-5.2-5.2v-39.6c0-2.8,2.4-5.2,5.2-5.2h94.8c2.8,0,5.2,2.4,5.2,5.2
		V156C419.6,159.2,417.2,161.2,414.4,161.2z"/>
	<path style="fill:#E6E9EE;" d="M188.4,396.4H93.6c-2.8,0-5.2-2.4-5.2-5.2v-39.6c0-2.8,2.4-5.2,5.2-5.2h94.8c2.8,0,5.2,2.4,5.2,5.2
		v39.6C193.6,394,191.2,396.4,188.4,396.4z"/>
	<path style="fill:#E6E9EE;" d="M301.2,396.4h-94.4c-2.8,0-5.2-2.4-5.2-5.2v-39.6c0-2.8,2.4-5.2,5.2-5.2h94.8c2.8,0,5.2,2.4,5.2,5.2
		v39.6C306.4,394,304,396.4,301.2,396.4z"/>
	<path style="fill:#E6E9EE;" d="M414.4,396.4h-94.8c-2.8,0-5.2-2.4-5.2-5.2v-39.6c0-2.8,2.4-5.2,5.2-5.2h94.8c2.8,0,5.2,2.4,5.2,5.2
		v39.6C419.6,394,417.2,396.4,414.4,396.4z"/>
	<path style="fill:#E6E9EE;" d="M244.8,220H150c-2.8,0-5.2-2.4-5.2-5.2v-39.6c0-2.8,2.4-5.2,5.2-5.2h94.8c2.8,0,5.2,2.4,5.2,5.2
		v39.6C250,218,247.6,220,244.8,220z"/>
	<path style="fill:#E6E9EE;" d="M358,220h-94.8c-2.8,0-5.2-2.4-5.2-5.2v-39.6c0-2.8,2.4-5.2,5.2-5.2H358c2.8,0,5.2,2.4,5.2,5.2v39.6
		C362.8,218,360.8,220,358,220z"/>
	<path style="fill:#E6E9EE;" d="M419.6,170.4H376c-2.8,0-5.2,2.4-5.2,5.2v39.6c0,2.8,2.4,5.2,5.2,5.2h43.2v-50H419.6z"/>
	<path style="fill:#E6E9EE;" d="M88.4,170.4h43.2c2.8,0,5.2,2.4,5.2,5.2v39.6c0,2.8-2.4,5.2-5.2,5.2H88.4V170.4z"/>
	<path style="fill:#E6E9EE;" d="M419.6,288H376c-2.8,0-5.2,2.4-5.2,5.2v39.6c0,2.8,2.4,5.2,5.2,5.2h43.2v-50H419.6z"/>
	<path style="fill:#E6E9EE;" d="M88.4,288h43.2c2.8,0,5.2,2.4,5.2,5.2v39.6c0,2.8-2.4,5.2-5.2,5.2H88.4V288z"/>
	<path style="fill:#E6E9EE;" d="M244.8,337.6H150c-2.8,0-5.2-2.4-5.2-5.2v-39.6c0-2.8,2.4-5.2,5.2-5.2h94.8c2.8,0,5.2,2.4,5.2,5.2
		v39.6C250,335.6,247.6,337.6,244.8,337.6z"/>
	<path style="fill:#E6E9EE;" d="M358,337.6h-94.8c-2.8,0-5.2-2.4-5.2-5.2v-39.6c0-2.8,2.4-5.2,5.2-5.2H358c2.8,0,5.2,2.4,5.2,5.2
		v39.6C362.8,335.6,360.8,337.6,358,337.6z"/>
	<path style="fill:#E6E9EE;" d="M188.4,278.8H93.6c-2.8,0-5.2-2.4-5.2-5.2V234c0-2.8,2.4-5.2,5.2-5.2h94.8c2.8,0,5.2,2.4,5.2,5.2v40
		C193.6,276.8,191.2,278.8,188.4,278.8z"/>
	<path style="fill:#E6E9EE;" d="M301.2,278.8h-94.4c-2.8,0-5.2-2.4-5.2-5.2V234c0-2.8,2.4-5.2,5.2-5.2h94.8c2.8,0,5.2,2.4,5.2,5.2
		v40C306.4,276.8,304,278.8,301.2,278.8z"/>
	<path style="fill:#E6E9EE;" d="M414.4,278.8h-94.8c-2.8,0-5.2-2.4-5.2-5.2V234c0-2.8,2.4-5.2,5.2-5.2h94.8c2.8,0,5.2,2.4,5.2,5.2
		v40C419.6,276.8,417.2,278.8,414.4,278.8z"/>
</g>
<g>
</g>
<g>
</g>
<g>
</g>
<g>
</g>
<g>
</g>
<g>
</g>
<g>
</g>
<g>
</g>
<g>
</g>
<g>
</g>
<g>
</g>
<g>
</g>
<g>
</g>
<g>
</g>
<g>
</g>
</svg>
