<?xml version="1.0" encoding="iso-8859-1"?>
<!-- Generator: Adobe Illustrator 19.0.0, SVG Export Plug-In . SVG Version: 6.00 Build 0)  -->
<svg version="1.1" id="Layer_1" xmlns="http://www.w3.org/2000/svg" xmlns:xlink="http://www.w3.org/1999/xlink" x="0px" y="0px"
	 viewBox="0 0 496.468 496.468" style="enable-background:new 0 0 496.468 496.468;" xml:space="preserve">
<path style="fill:#0D4049;" d="M187.668,481.6c-9.6,9.6-13.6,20.8-22.4,11.2L3.668,332c-9.6-9.6,1.6-12.8,11.2-22.4l48.8-14.4
	c9.6-9.6,24.8-9.6,33.6,0l104.8,104.8c9.6,9.6,9.6,24.8,0,33.6L187.668,481.6z"/>
<path style="fill:#073135;" d="M187.668,481.6c-9.6,9.6-13.6,20.8-22.4,11.2L3.668,332c-9.6-9.6,1.6-12.8,11.2-22.4"/>
<g>
	<path style="fill:#C19A6B;" d="M187.668,331.2c-6.4,6.4-16,6.4-22.4,0l0,0c-6.4-6.4-6.4-16,0-22.4l304-304c6.4-6.4,16-6.4,22.4,0
		l0,0c6.4,6.4,6.4,16,0,22.4L187.668,331.2z"/>
	<path style="fill:#C19A6B;" d="M212.468,400.8c-2.4,2.4-7.2,2.4-9.6,0l-107.2-107.2c-2.4-2.4-2.4-7.2,0-9.6l16.8-16.8
		c2.4-2.4,7.2-2.4,9.6,0l106.4,106.4c2.4,2.4,2.4,7.2,0,9.6L212.468,400.8z"/>
</g>
<path style="fill:#AF895F;" d="M228.468,374.4c2.4,2.4,2.4,7.2,0,9.6l-16.8,16.8c-2.4,2.4-7.2,2.4-9.6,0l-106.4-107.2
	c-2.4-2.4-2.4-7.2,0-9.6"/>
<g>
</g>
<g>
</g>
<g>
</g>
<g>
</g>
<g>
</g>
<g>
</g>
<g>
</g>
<g>
</g>
<g>
</g>
<g>
</g>
<g>
</g>
<g>
</g>
<g>
</g>
<g>
</g>
<g>
</g>
</svg>
