<?xml version="1.0" encoding="iso-8859-1"?>
<!-- Generator: Adobe Illustrator 15.0.0, SVG Export Plug-In . SVG Version: 6.00 Build 0)  -->
<!DOCTYPE svg PUBLIC "-//W3C//DTD SVG 1.1//EN" "http://www.w3.org/Graphics/SVG/1.1/DTD/svg11.dtd">
<svg xmlns="http://www.w3.org/2000/svg" xmlns:xlink="http://www.w3.org/1999/xlink" version="1.1" id="Layer_1" x="0px" y="0px" width="512" height="512" viewBox="0 0 128 128" style="enable-background:new 0 0 128 128;" xml:space="preserve">
<g>
	<circle style="fill:#2D4452;" cx="64" cy="64" r="64"/>
	<path style="fill:#2179A6;" d="M115.396,102.136C112.791,100.816,111,98.12,111,95c0-0.552-0.449-1-1-1s-1,0.448-1,1   c0,4.418-3.582,8-8,8s-8-3.582-8-8c0-0.552-0.449-1-1-1s-1,0.448-1,1c0,4.418-3.582,8-8,8s-8-3.582-8-8c0-0.552-0.449-1-1-1   s-1,0.448-1,1c0,4.418-3.582,8-8,8s-8-3.582-8-8c0-0.552-0.449-1-1-1s-1,0.448-1,1c0,4.418-3.582,8-8,8s-8-3.582-8-8   c0-0.552-0.449-1-1-1s-1,0.448-1,1c0,4.418-3.582,8-8,8s-8-3.582-8-8c0-0.552-0.449-1-1-1s-1,0.448-1,1   c0,3.707-2.525,6.816-5.946,7.725c4.213,5.533,9.3,10.364,15.065,14.275h71.762C105.852,112.95,111.1,107.917,115.396,102.136z"/>
	<path style="fill:#B3B3B3;" d="M61,76c0,1.1-0.9,2-2,2h-8c-1.1,0-2-0.9-2-2V34c0-1.1,0.9-2,2-2h8c1.1,0,2,0.9,2,2V76z"/>
	<path style="fill:#E6E6E6;" d="M0,64c0,3.057,0.229,6.059,0.643,9H49V37H5.974C2.149,45.206,0,54.35,0,64z"/>
	<rect x="47" y="37" style="fill:#CCCCCC;" width="2" height="36"/>
	<g>
		<path style="fill:#C2E2F2;" d="M65,105.656c5.674,0,10-3.98,10-9.656c0-5.672-4.863-11.018-10-15c-5.136,3.982-10,9.328-10,15    C55,101.676,59.326,105.656,65,105.656z"/>
		<path style="fill:#B8D6E6;" d="M65,81v24.656c5.674,0,10-3.98,10-9.656C75,90.328,70.137,84.982,65,81z"/>
	</g>
	<path style="fill:#2995CC;" d="M106.646,111.707C104.454,110.28,103,107.813,103,105c0-0.552-0.449-1-1-1s-1,0.448-1,1   c0,4.418-3.582,8-8,8s-8-3.582-8-8c0-0.552-0.449-1-1-1s-1,0.448-1,1c0,4.418-3.582,8-8,8s-8-3.582-8-8c0-0.552-0.449-1-1-1   s-1,0.448-1,1c0,4.418-3.582,8-8,8s-8-3.582-8-8c0-0.552-0.449-1-1-1s-1,0.448-1,1c0,4.418-3.582,8-8,8s-8-3.582-8-8   c0-0.552-0.449-1-1-1s-1,0.448-1,1c0,3.854-2.726,7.068-6.353,7.829C31.094,119.99,41.419,124.99,52.783,127h22.434   C87.167,124.886,97.973,119.468,106.646,111.707z"/>
	<path style="fill:#C2E2F2;" d="M64,128c11.178,0,21.684-2.873,30.828-7.91C93.686,118.707,93,116.934,93,115c0-0.552-0.449-1-1-1   s-1,0.448-1,1c0,4.418-3.582,8-8,8s-8-3.582-8-8c0-0.552-0.449-1-1-1s-1,0.448-1,1c0,4.418-3.582,8-8,8s-8-3.582-8-8   c0-0.552-0.449-1-1-1s-1,0.448-1,1c0,4.418-3.582,8-8,8s-8-3.582-8-8c0-0.552-0.449-1-1-1s-1,0.448-1,1   c0,2.282-0.961,4.336-2.494,5.794C43.334,125.389,53.359,128,64,128z"/>
</g>
</svg>
