<?xml version="1.0" encoding="iso-8859-1"?>
<!-- Generator: Adobe Illustrator 19.0.0, SVG Export Plug-In . SVG Version: 6.00 Build 0)  -->
<svg version="1.1" id="Layer_1" xmlns="http://www.w3.org/2000/svg" xmlns:xlink="http://www.w3.org/1999/xlink" x="0px" y="0px"
	 viewBox="0 0 512 512" style="enable-background:new 0 0 512 512;" xml:space="preserve">
<path style="fill:#BC342E;" d="M501.221,301.811l-97.01-72.758v44.912l71.86,53.895v8.982h-71.86v35.93h89.825
	c9.881,0,17.965-8.084,17.965-17.965v-31.439C512,315.284,508.407,307.2,501.221,301.811"/>
<path style="fill:#A3AAAF;" d="M269.474,121.263c-19.761,0-35.93,16.168-35.93,35.93v71.86c0,5.389,3.593,8.982,8.982,8.982
	s8.982-3.593,8.982-8.982v-71.86c0-9.881,8.084-17.965,17.965-17.965s17.965,8.084,17.965,17.965v35.93
	c0,5.389,3.593,8.982,8.982,8.982s8.982-3.593,8.982-8.982v-35.93C305.404,137.432,289.235,121.263,269.474,121.263"/>
<path style="fill:#E0E0E0;" d="M197.614,372.772H44.912C19.761,372.772,0,353.011,0,327.86s19.761-44.912,44.912-44.912h152.702
	V372.772z"/>
<path style="fill:#A3AAAF;" d="M161.684,336.842H44.912c-5.389,0-8.982-3.593-8.982-8.982s3.593-8.982,8.982-8.982h116.772
	c5.389,0,8.982,3.593,8.982,8.982S167.074,336.842,161.684,336.842"/>
<path style="fill:#E15649;" d="M296.421,193.123h62.877c29.642,0,53.895,24.253,53.895,53.895v116.772
	c0,15.27-11.677,26.947-26.947,26.947H215.579c-9.881,0-17.965-8.084-17.965-17.965V264.982c0-27.846,12.575-71.86,35.93-71.86
	H296.421z"/>
<path style="fill:#BC342E;" d="M359.298,390.737h-89.825V282.947h89.825l17.965,26.947v26.947L359.298,390.737z"/>
<g>
	<path style="fill:#F4BA48;" d="M314.386,291.93c-5.389,0-8.982-3.593-8.982-8.982V256c0-5.389,3.593-8.982,8.982-8.982
		c5.389,0,8.982,3.593,8.982,8.982v26.947C323.368,288.337,319.775,291.93,314.386,291.93"/>
	<path style="fill:#F4BA48;" d="M332.351,264.982h-35.93c-5.389,0-8.982-3.593-8.982-8.982c0-5.389,3.593-8.982,8.982-8.982h35.93
		c5.389,0,8.982,3.593,8.982,8.982C341.333,261.389,337.74,264.982,332.351,264.982"/>
</g>
<g>
	<path style="fill:#E15649;" d="M332.351,327.86h-26.947c-5.389,0-8.982-3.593-8.982-8.982s3.593-8.982,8.982-8.982h26.947
		c5.389,0,8.982,3.593,8.982,8.982S337.74,327.86,332.351,327.86"/>
	<path style="fill:#E15649;" d="M332.351,363.789h-26.947c-5.389,0-8.982-3.593-8.982-8.982c0-5.389,3.593-8.982,8.982-8.982h26.947
		c5.389,0,8.982,3.593,8.982,8.982C341.333,360.197,337.74,363.789,332.351,363.789"/>
</g>
<g>
</g>
<g>
</g>
<g>
</g>
<g>
</g>
<g>
</g>
<g>
</g>
<g>
</g>
<g>
</g>
<g>
</g>
<g>
</g>
<g>
</g>
<g>
</g>
<g>
</g>
<g>
</g>
<g>
</g>
</svg>
