<?xml version="1.0" encoding="utf-8"?>
<!-- Generator: Adobe Illustrator 19.0.0, SVG Export Plug-In . SVG Version: 6.00 Build 0)  -->
<svg version="1.1" id="Capa_1" xmlns="http://www.w3.org/2000/svg" xmlns:xlink="http://www.w3.org/1999/xlink" x="0px" y="0px"
	 viewBox="-99 190 413 413" style="enable-background:new -99 190 413 413;" xml:space="preserve">
<style type="text/css">
	.st0{fill:#2488A3;}
	.st1{fill:#FF0B29;}
</style>
<g>
	<path class="st0" d="M193.7,304.5l-74.1-55c-4.8-3.6-12-3.5-16.8,0l-73.4,55c-2.7,2-3.2,5.7-1.2,8.4c2,2.7,5.7,3.2,8.4,1.2l73.4-55
		c0.5-0.4,1.5-0.6,2.4,0l74.1,55c1.1,0.8,2.3,1.2,3.6,1.2c1.8,0,3.6-0.8,4.8-2.4C196.9,310.2,196.4,306.4,193.7,304.5z"/>
	<path class="st0" d="M310.6,433.9c0,0-62.4,0-83.2,0c-4.6,0-4.2-3.8-4.2-3.8V324c0,0-0.2-2.7,2.9-2.7c2.9,0,11.8,0,11.8,0
		c5.2,0,8-3,9-5.8c1-2.8,0.5-6.9-3.5-10.1l-22.6-17.6c-1.1-1-1.3-2.2-1.3-2.9v-39.8c0-6.3-5.2-11.5-11.5-11.5H181
		c-6.3,0-11.5,5.2-11.5,11.5c0,0,0,0.7,0,1c0,2.2-1.5,0.7-1.5,0.7L119,208.7c-2.1-1.7-4.9-2.6-7.8-2.6s-5.6,0.9-7.8,2.6l-124.3,96.8
		c-4.1,3.2-4.5,7.3-3.5,10.1c1,2.8,3.8,5.8,9,5.8c0,0,9.5,0,12.6,0c2.2,0,2,2.4,2,2.4v107.6c0,0,0.4,2.6-3.5,2.6
		c-22,0-88.2,0-88.2,0c-2.8,0-5,2.3-5,5v143.1c0,2.8,2.3,5,5,5h5c2.8,0,5-2.3,5-5V453.9c0-2.8,2.3-5,5-5h88.2h70.3h60.4h70.3h83.9
		c2.8,0,5,2.3,5,5v128.1c0,2.8,2.3,5,5,5h5c2.8,0,5-2.3,5-5V438.9C315.6,436.1,313.3,433.9,310.6,433.9z M184.5,249.5
		c0-0.9,0.9-0.9,0.9-0.9h17.9c0,0,1.1,0,1.1,1.1c0,5.8,0,16.4,0,21.9c0,1.4-0.8,0.7-0.8,0.7L185,256.8c-0.2-0.2-0.5-0.5-0.5-1
		C184.5,255.8,184.5,251.1,184.5,249.5z M92.4,396.7c0-0.1-0.1-9,5.1-14.4c3-3.1,7.2-4.5,12.9-4.5c18.6,0,19.5,16,19.6,19.1
		c0,2.2-0.1,5.9-0.1,8.1l0,25.9c0,0,0.2,3-3.5,3c-7.8,0-22,0-31.3,0c-2.7,0-2.5-2.1-2.5-2.1V405C92.6,402.7,92.5,399,92.4,396.7z
		 M148.3,433.9c-3.5,0-3.4-3.1-3.4-3.1V405c0-2.2,0-5.7,0-7.9c0-1.5-0.1-15.1-9.8-24.9c-6.1-6.2-14.4-9.4-24.7-9.4
		c-9.9,0-17.8,3.1-23.7,9.1c-9.6,9.9-9.4,23.8-9.3,25.3c0.1,2.1,0.1,5.6,0.1,7.7v26.9c0,0,0.1,2-2.2,2c-14.5,0-43,0-58.1,0
		c-3.1,0-3-2.7-3-2.7V317.8c0-5.8-4.5-9.8-9.9-11.4c-1.5-0.5,0-1.6,0-1.6l104.5-81.3c0,0,1.2-1.1,2.4-1.1c1.1,0,2.3,1,2.3,1
		l104.2,81.1c0,0,2.5,1.6-0.2,2c-5.3,0.9-9.3,5.7-9.3,11.3V430c0,0,0.3,3.9-4.1,3.9C190.2,433.9,163.3,433.9,148.3,433.9z"/>
	<path class="st1" d="M272.2,517.2h-39.3c-2.8,0-6.4,1.7-8.2,3.9l-24.8,30c-1.8,2.1-3.9,1.7-4.8-0.9l-12.4-36.3
		c-0.9-2.6-3.8-4.3-6.5-3.8l-34.6,6.2c-2.7,0.5-5.3-1.3-5.7-4l-7.1-42.5c-0.5-2.7-2.2-3.1-3.9-1l-62.7,81.3
		c-1.7,2.2-3.7,1.8-4.5-0.8L37,481.6c-0.8-2.6-2.9-3.1-4.7-1L0.2,518.1c-1.8,2.1-5.5,3.8-8.3,3.8h-42.7c-2.8,0-5,2.3-5,5v2
		c0,2.8,2.3,5,5,5h48.3c2.8,0,6.5-1.7,8.3-3.8L27.2,505c1.8-2.1,3.9-1.6,4.7,1l21,69.1c0.8,2.6,2.8,3,4.5,0.8l60.1-78
		c1.7-2.2,3.4-1.7,3.9,1l4.6,27.3c0.5,2.7,3,4.5,5.7,4l36.4-6.6c2.7-0.5,5.6,1.2,6.5,3.8l16,46.8c0.9,2.6,3.1,3,4.8,0.9l34.9-42.2
		c1.8-2.1,5.4-3.9,8.2-3.9h33.7c2.8,0,5-2.3,5-5v-2C277.2,519.4,274.9,517.2,272.2,517.2z"/>
</g>
</svg>
