<?xml version="1.0" encoding="iso-8859-1"?>
<!-- Generator: Adobe Illustrator 19.0.0, SVG Export Plug-In . SVG Version: 6.00 Build 0)  -->
<svg xmlns="http://www.w3.org/2000/svg" xmlns:xlink="http://www.w3.org/1999/xlink" version="1.1" id="Capa_1" x="0px" y="0px" viewBox="0 0 389.981 389.981" style="enable-background:new 0 0 389.981 389.981;" xml:space="preserve" width="512px" height="512px">
<g>
	<g>
		<path d="M194.99,30.276c-90.824,0-164.714,73.891-164.714,164.715s73.891,164.714,164.714,164.714s164.714-73.891,164.714-164.714    C359.705,104.167,285.814,30.276,194.99,30.276z M194.99,344.705c-82.553,0-149.714-67.162-149.714-149.714    c0-82.553,67.162-149.715,149.714-149.715c82.553,0,149.714,67.162,149.714,149.715    C344.705,277.543,277.543,344.705,194.99,344.705z" fill="#cd853f"/>
		<path d="M320.337,213.328h-40.329V176.65h40.329c4.143,0,7.5-3.358,7.5-7.5s-3.357-7.5-7.5-7.5h-40.329v-36.67h16.776    c4.143,0,7.5-3.358,7.5-7.5s-3.357-7.5-7.5-7.5h-16.776V93.202c0-4.142-3.357-7.5-7.5-7.5s-7.5,3.358-7.5,7.5v16.777H228.33V69.65    c0-4.142-3.357-7.5-7.5-7.5s-7.5,3.358-7.5,7.5v40.329h-36.678V69.65c0-4.142-3.358-7.5-7.5-7.5s-7.5,3.358-7.5,7.5v40.329h-36.67    V93.194c0-4.142-3.358-7.5-7.5-7.5s-7.5,3.358-7.5,7.5v16.785H93.196c-4.142,0-7.5,3.358-7.5,7.5s3.358,7.5,7.5,7.5h16.785v36.67    H69.652c-4.142,0-7.5,3.358-7.5,7.5s3.358,7.5,7.5,7.5h40.329v36.678H69.652c-4.142,0-7.5,3.358-7.5,7.5s3.358,7.5,7.5,7.5h40.329    v36.678H93.196c-4.142,0-7.5,3.358-7.5,7.5s3.358,7.5,7.5,7.5h16.785v16.785c0,4.142,3.358,7.5,7.5,7.5s7.5-3.358,7.5-7.5v-16.785    h36.67v40.329c0,4.142,3.358,7.5,7.5,7.5s7.5-3.358,7.5-7.5v-40.329h36.678v40.329c0,4.142,3.357,7.5,7.5,7.5s7.5-3.358,7.5-7.5    v-40.329h36.679v16.777c0,4.142,3.357,7.5,7.5,7.5s7.5-3.358,7.5-7.5v-16.777h16.776c4.143,0,7.5-3.358,7.5-7.5    s-3.357-7.5-7.5-7.5h-16.776v-36.678h40.329c4.143,0,7.5-3.358,7.5-7.5S324.48,213.328,320.337,213.328z M265.008,213.328H228.33    V176.65h36.679v36.678H265.008z M213.33,213.328h-36.678V176.65h36.678L213.33,213.328L213.33,213.328z M265.008,124.979v36.67    H228.33v-36.67C228.33,124.979,265.008,124.979,265.008,124.979z M213.33,124.979v36.67h-36.678v-36.67    C176.652,124.979,213.33,124.979,213.33,124.979z M124.981,124.979h36.67v36.67h-36.67V124.979z M124.981,176.649h36.67v36.678    h-36.67V176.649z M124.981,265.006v-36.678h36.67v36.678H124.981z M176.651,265.006v-36.678h36.678v36.678H176.651z     M265.008,265.006H228.33v-36.678h36.679v36.678H265.008z" fill="#cd853f"/>
		<path d="M352.382,309.953c23.625-32.257,37.599-72.006,37.599-114.962c0-42.958-13.975-82.708-37.602-114.966l14.431-14.431    c2.929-2.929,2.929-7.678,0-10.606l-31.819-31.82c-2.929-2.929-7.677-2.929-10.607,0l-14.431,14.431    C277.695,13.973,237.947,0,194.99,0S112.285,13.974,80.028,37.599L65.596,23.167c-2.929-2.929-7.678-2.929-10.606,0l-31.82,31.82    c-2.929,2.929-2.929,7.678,0,10.606l14.431,14.431C13.974,112.283,0,152.033,0,194.991c0,42.957,13.973,82.705,37.599,114.962    L23.17,324.381c-1.407,1.406-2.197,3.314-2.197,5.303s0.79,3.897,2.197,5.303l31.82,31.82c1.464,1.465,3.384,2.197,5.303,2.197    c1.919,0,3.839-0.732,5.303-2.197l14.428-14.428c32.258,23.627,72.008,37.602,114.966,37.602s82.708-13.975,114.966-37.602    l14.428,14.427c1.464,1.465,3.384,2.197,5.303,2.197s3.839-0.732,5.304-2.197l31.819-31.82c2.929-2.929,2.929-7.678,0-10.606    L352.382,309.953z M329.687,39.077L350.9,60.291l-7.902,7.902c-6.52-7.6-13.613-14.693-21.213-21.213L329.687,39.077z     M39.08,60.291l21.213-21.213l7.902,7.902c-7.6,6.52-14.693,13.613-21.214,21.213L39.08,60.291z M60.293,350.897L39.08,329.684    l7.899-7.899c6.52,7.6,13.613,14.693,21.213,21.214L60.293,350.897z M15,194.991C15,95.744,95.743,15,194.99,15    c99.248,0,179.991,80.744,179.991,179.991s-80.743,179.99-179.991,179.99C95.743,374.981,15,294.238,15,194.991z M329.687,350.897    l-7.899-7.898c7.6-6.52,14.693-13.613,21.213-21.214l7.899,7.898L329.687,350.897z" fill="#cd853f"/>
	</g>
</g>
<g>
</g>
<g>
</g>
<g>
</g>
<g>
</g>
<g>
</g>
<g>
</g>
<g>
</g>
<g>
</g>
<g>
</g>
<g>
</g>
<g>
</g>
<g>
</g>
<g>
</g>
<g>
</g>
<g>
</g>
</svg>
